<svg width="44" height="44" fill="none" xmlns="http://www.w3.org/2000/svg"><path fill-rule="evenodd" clip-rule="evenodd" d="M21.894 1.484c11.23 0 20.333 9.103 20.333 20.333 0 11.23-9.104 20.332-20.333 20.332-11.23 0-20.333-9.103-20.333-20.332 0-11.23 9.103-20.333 20.333-20.333Z" fill="#212A3A"/><path fill-rule="evenodd" clip-rule="evenodd" d="M14 11h15c1.65 0 3 1.35 3 3v15c0 1.65-1.35 3-3 3H14c-1.65 0-3-1.35-3-3V14c0-1.65 1.35-3 3-3Zm11 10.5c0-1.93-1.57-3.5-3.5-3.5S18 19.57 18 21.5s1.57 3.5 3.5 3.5 3.5-1.57 3.5-3.5ZM14 29v-9h1.181c-.118.491-.18.995-.181 1.5a6.5 6.5 0 1 0 13 0 6.451 6.451 0 0 0-.181-1.5H29v9H14Zm11-11h4v-4h-4v4Z" fill="#fff"/></svg>